<mxfile host="app.diagrams.net" agent="Mozilla/5.0 (Windows NT 10.0; Win64; x64) AppleWebKit/537.36 (KHTML, like Gecko) Chrome/137.0.0.0 Safari/537.36" version="27.1.5">
  <diagram name="Halaman-1" id="yTAvqdzuARtODB_30p09">
    <mxGraphModel dx="1042" dy="596" grid="1" gridSize="10" guides="1" tooltips="1" connect="1" arrows="1" fold="1" page="1" pageScale="1" pageWidth="827" pageHeight="1169" math="0" shadow="0">
      <root>
        <mxCell id="0" />
        <mxCell id="1" parent="0" />
        <mxCell id="-ocOFClTZGq8DmicS_gb-6" value="" style="edgeStyle=orthogonalEdgeStyle;rounded=0;orthogonalLoop=1;jettySize=auto;html=1;" parent="1" source="-ocOFClTZGq8DmicS_gb-1" target="-ocOFClTZGq8DmicS_gb-5" edge="1">
          <mxGeometry relative="1" as="geometry" />
        </mxCell>
        <mxCell id="Q4A9JkVrZHm_YetEjNL0-3" value="" style="edgeStyle=orthogonalEdgeStyle;rounded=0;orthogonalLoop=1;jettySize=auto;html=1;" edge="1" parent="1" source="-ocOFClTZGq8DmicS_gb-1">
          <mxGeometry relative="1" as="geometry">
            <mxPoint x="130" y="370" as="targetPoint" />
          </mxGeometry>
        </mxCell>
        <mxCell id="-ocOFClTZGq8DmicS_gb-1" value="Kamera" style="rounded=0;whiteSpace=wrap;html=1;" parent="1" vertex="1">
          <mxGeometry x="70" y="240" width="120" height="60" as="geometry" />
        </mxCell>
        <mxCell id="-ocOFClTZGq8DmicS_gb-24" style="edgeStyle=orthogonalEdgeStyle;rounded=0;orthogonalLoop=1;jettySize=auto;html=1;entryX=0;entryY=0.75;entryDx=0;entryDy=0;" parent="1" source="-ocOFClTZGq8DmicS_gb-2" target="-ocOFClTZGq8DmicS_gb-5" edge="1">
          <mxGeometry relative="1" as="geometry">
            <mxPoint x="240" y="270" as="targetPoint" />
          </mxGeometry>
        </mxCell>
        <mxCell id="-ocOFClTZGq8DmicS_gb-2" value="Laptop" style="rounded=0;whiteSpace=wrap;html=1;" parent="1" vertex="1">
          <mxGeometry x="70" y="370" width="120" height="60" as="geometry" />
        </mxCell>
        <mxCell id="Q4A9JkVrZHm_YetEjNL0-4" style="edgeStyle=orthogonalEdgeStyle;rounded=0;orthogonalLoop=1;jettySize=auto;html=1;entryX=0;entryY=0.5;entryDx=0;entryDy=0;" edge="1" parent="1" source="-ocOFClTZGq8DmicS_gb-5" target="-ocOFClTZGq8DmicS_gb-14">
          <mxGeometry relative="1" as="geometry" />
        </mxCell>
        <mxCell id="-ocOFClTZGq8DmicS_gb-5" value="ARDUINO UNO R3" style="whiteSpace=wrap;html=1;rounded=0;" parent="1" vertex="1">
          <mxGeometry x="294" y="240" width="120" height="60" as="geometry" />
        </mxCell>
        <mxCell id="-ocOFClTZGq8DmicS_gb-8" value="Data Identifikasi Stroberi" style="text;html=1;align=center;verticalAlign=middle;whiteSpace=wrap;rounded=0;" parent="1" vertex="1">
          <mxGeometry x="210" y="220" width="60" height="30" as="geometry" />
        </mxCell>
        <mxCell id="-ocOFClTZGq8DmicS_gb-13" value="" style="edgeStyle=orthogonalEdgeStyle;rounded=0;orthogonalLoop=1;jettySize=auto;html=1;" parent="1" source="-ocOFClTZGq8DmicS_gb-9" target="-ocOFClTZGq8DmicS_gb-11" edge="1">
          <mxGeometry relative="1" as="geometry" />
        </mxCell>
        <mxCell id="-ocOFClTZGq8DmicS_gb-15" style="edgeStyle=orthogonalEdgeStyle;rounded=0;orthogonalLoop=1;jettySize=auto;html=1;entryX=0.5;entryY=1;entryDx=0;entryDy=0;" parent="1" source="-ocOFClTZGq8DmicS_gb-9" target="-ocOFClTZGq8DmicS_gb-14" edge="1">
          <mxGeometry relative="1" as="geometry" />
        </mxCell>
        <mxCell id="-ocOFClTZGq8DmicS_gb-9" value="Adaptor 12V 3A" style="rounded=0;whiteSpace=wrap;html=1;" parent="1" vertex="1">
          <mxGeometry x="294" y="410" width="120" height="60" as="geometry" />
        </mxCell>
        <mxCell id="-ocOFClTZGq8DmicS_gb-12" value="" style="edgeStyle=orthogonalEdgeStyle;rounded=0;orthogonalLoop=1;jettySize=auto;html=1;" parent="1" source="-ocOFClTZGq8DmicS_gb-11" target="-ocOFClTZGq8DmicS_gb-5" edge="1">
          <mxGeometry relative="1" as="geometry" />
        </mxCell>
        <mxCell id="-ocOFClTZGq8DmicS_gb-11" value="Modul Step-Down to 5V" style="rounded=0;whiteSpace=wrap;html=1;" parent="1" vertex="1">
          <mxGeometry x="294" y="330" width="120" height="60" as="geometry" />
        </mxCell>
        <mxCell id="-ocOFClTZGq8DmicS_gb-26" value="" style="edgeStyle=orthogonalEdgeStyle;rounded=0;orthogonalLoop=1;jettySize=auto;html=1;" parent="1" source="-ocOFClTZGq8DmicS_gb-14" target="-ocOFClTZGq8DmicS_gb-25" edge="1">
          <mxGeometry relative="1" as="geometry" />
        </mxCell>
        <mxCell id="-ocOFClTZGq8DmicS_gb-29" style="edgeStyle=orthogonalEdgeStyle;rounded=0;orthogonalLoop=1;jettySize=auto;html=1;entryX=0;entryY=0.5;entryDx=0;entryDy=0;" parent="1" source="-ocOFClTZGq8DmicS_gb-14" target="-ocOFClTZGq8DmicS_gb-27" edge="1">
          <mxGeometry relative="1" as="geometry" />
        </mxCell>
        <mxCell id="-ocOFClTZGq8DmicS_gb-14" value="Motor Driver L298N" style="rounded=0;whiteSpace=wrap;html=1;" parent="1" vertex="1">
          <mxGeometry x="490" y="240" width="120" height="60" as="geometry" />
        </mxCell>
        <mxCell id="-ocOFClTZGq8DmicS_gb-23" value="PIN ENA,ENB, IN1, IN2, IN3, IN4" style="text;html=1;align=center;verticalAlign=middle;whiteSpace=wrap;rounded=0;" parent="1" vertex="1">
          <mxGeometry x="420" y="200" width="60" height="50" as="geometry" />
        </mxCell>
        <mxCell id="-ocOFClTZGq8DmicS_gb-31" value="" style="edgeStyle=orthogonalEdgeStyle;rounded=0;orthogonalLoop=1;jettySize=auto;html=1;" parent="1" source="-ocOFClTZGq8DmicS_gb-25" target="-ocOFClTZGq8DmicS_gb-30" edge="1">
          <mxGeometry relative="1" as="geometry" />
        </mxCell>
        <mxCell id="-ocOFClTZGq8DmicS_gb-25" value="Motor JGA25370" style="rounded=0;whiteSpace=wrap;html=1;" parent="1" vertex="1">
          <mxGeometry x="690" y="240" width="120" height="60" as="geometry" />
        </mxCell>
        <mxCell id="-ocOFClTZGq8DmicS_gb-33" value="" style="edgeStyle=orthogonalEdgeStyle;rounded=0;orthogonalLoop=1;jettySize=auto;html=1;" parent="1" source="-ocOFClTZGq8DmicS_gb-27" target="-ocOFClTZGq8DmicS_gb-32" edge="1">
          <mxGeometry relative="1" as="geometry" />
        </mxCell>
        <mxCell id="-ocOFClTZGq8DmicS_gb-27" value="Motor JGA25370" style="rounded=0;whiteSpace=wrap;html=1;" parent="1" vertex="1">
          <mxGeometry x="690" y="340" width="120" height="60" as="geometry" />
        </mxCell>
        <mxCell id="-ocOFClTZGq8DmicS_gb-35" style="edgeStyle=orthogonalEdgeStyle;rounded=0;orthogonalLoop=1;jettySize=auto;html=1;entryX=0.5;entryY=0;entryDx=0;entryDy=0;" parent="1" source="-ocOFClTZGq8DmicS_gb-30" target="-ocOFClTZGq8DmicS_gb-5" edge="1">
          <mxGeometry relative="1" as="geometry" />
        </mxCell>
        <mxCell id="-ocOFClTZGq8DmicS_gb-30" value="&lt;strong&gt;Rotary Incremental Encoder (Angle)&lt;/strong&gt;" style="rounded=0;whiteSpace=wrap;html=1;" parent="1" vertex="1">
          <mxGeometry x="690" y="100" width="120" height="60" as="geometry" />
        </mxCell>
        <mxCell id="-ocOFClTZGq8DmicS_gb-34" style="edgeStyle=orthogonalEdgeStyle;rounded=0;orthogonalLoop=1;jettySize=auto;html=1;entryX=1;entryY=0.75;entryDx=0;entryDy=0;exitX=0;exitY=0.5;exitDx=0;exitDy=0;" parent="1" source="-ocOFClTZGq8DmicS_gb-32" target="-ocOFClTZGq8DmicS_gb-5" edge="1">
          <mxGeometry relative="1" as="geometry">
            <mxPoint x="680" y="470" as="sourcePoint" />
            <Array as="points">
              <mxPoint x="690" y="460" />
              <mxPoint x="470" y="460" />
              <mxPoint x="470" y="285" />
            </Array>
          </mxGeometry>
        </mxCell>
        <mxCell id="-ocOFClTZGq8DmicS_gb-32" value="&lt;strong&gt;Rotary Incremental Encoder (Speed)&lt;/strong&gt;" style="rounded=0;whiteSpace=wrap;html=1;" parent="1" vertex="1">
          <mxGeometry x="690" y="440" width="120" height="60" as="geometry" />
        </mxCell>
        <mxCell id="-ocOFClTZGq8DmicS_gb-36" value="Feedback" style="text;html=1;align=center;verticalAlign=middle;whiteSpace=wrap;rounded=0;" parent="1" vertex="1">
          <mxGeometry x="610" y="120" width="60" height="50" as="geometry" />
        </mxCell>
        <mxCell id="-ocOFClTZGq8DmicS_gb-37" value="Feedback" style="text;html=1;align=center;verticalAlign=middle;whiteSpace=wrap;rounded=0;" parent="1" vertex="1">
          <mxGeometry x="590" y="450" width="60" height="50" as="geometry" />
        </mxCell>
        <mxCell id="-ocOFClTZGq8DmicS_gb-38" value="Kendali Motor" style="text;html=1;align=center;verticalAlign=middle;whiteSpace=wrap;rounded=0;" parent="1" vertex="1">
          <mxGeometry x="620" y="220" width="60" height="50" as="geometry" />
        </mxCell>
      </root>
    </mxGraphModel>
  </diagram>
</mxfile>
